<?xml version="1.0" encoding="utf-8"?>
<!-- Generator: Adobe Illustrator 18.1.1, SVG Export Plug-In . SVG Version: 6.00 Build 0)  -->
<svg version="1.1" id="レイヤー_1" xmlns="http://www.w3.org/2000/svg" xmlns:xlink="http://www.w3.org/1999/xlink" x="0px"
	 y="0px" width="510.2px" height="127.7px" viewBox="0 68.1 510.2 127.7" enable-background="new 0 68.1 510.2 127.7"
	 xml:space="preserve">
<g>
	<path fill="#1F2C5C" d="M2.1,195.5c-1.2,0-2.1-0.9-2.1-2.1V70.3c0-1.2,0.9-2.1,2.1-2.1c0,0,66.9,0,67.2,0
		c24.3,0,44.7,13.7,48.6,36.2c3,17,3,36.8,0,53.8c-4,23.1-23.7,37.1-48.6,37.1H2.1V195.5z M28,89.1c-1.8,0-3.3,1.2-3.3,3v79.3
		c0,1.8,1.5,3,3.3,3h39.2c14.6,0,25.2-7.9,26.7-21.6c1.5-14.3,1.5-29.2,0-43.5c-1.5-13.1-12.8-20.7-26.7-20.7H28V89.1z"/>
	<path fill="#1F2C5C" d="M508.1,68.1h-20.1c-0.9,0-1.5,0.6-2.1,1.2l-31,47.4c-0.6,1.2-1.8,1.8-3,1.8c-1.2,0-2.4-0.6-3-1.8
		l-31.3-47.4c-0.3-0.6-1.2-1.2-1.8-1.2h-20.1c-1.2,0-2.1,0.9-2.1,2.1v123.1c0,1.2,0.9,2.1,2.1,2.1h19.8c1.2,0,2.1-0.9,2.1-2.1V114
		c0-0.9,0.9-1.8,1.8-2.1c0,0,0.3,0,0.6,0c0.9,0,1.8,0.6,2.1,1.2l20.7,30.4c0.3,0.6,1.2,1.2,2.1,1.2h14.3c0.9,0,1.5-0.6,2.1-1.2
		l20.7-30.4c0.3-0.9,1.2-1.2,2.1-1.2c0.3,0,0.3,0,0.6,0c1.2,0.3,1.8,1.2,1.8,2.1v79.3c0,1.2,0.9,2.1,2.1,2.1h19.8
		c1.2,0,2.1-0.9,2.1-2.1V70.3C510.2,69.1,509.3,68.1,508.1,68.1z"/>
	<path fill="#1F2C5C" d="M261,195.5c1.2,0,2.1-0.9,2.1-2.1v-53.5c0-0.6,0-0.9,0.3-1.5l45.6-67.2c0.3-0.6,0.3-1.5,0-2.1
		c-0.3-0.6-1.2-0.9-1.8-0.9h-20.1c-0.9,0-1.5,0.3-1.8,1.2l-31.3,47.7c-0.6,0.9-1.8,1.5-3,1.5c-1.2,0-2.4-0.6-3-1.5l-31.3-47.7
		c-0.3-0.9-0.9-1.2-1.8-1.2h-20.1c-0.9,0-1.5,0.3-1.8,0.9c-0.3,0.6-0.3,1.5,0,2.1l45.6,67.2c0.3,0.6,0.3,0.9,0.3,1.5v53.5
		c0,1.2,0.9,2.1,2.1,2.1H261z"/>
</g>
</svg>
