<svg width="24" height="18" viewBox="0 0 24 18" fill="none" xmlns="http://www.w3.org/2000/svg">
<path d="M15.8391 0.43124C15.2203 0.665615 14.5687 0.928115 13.8797 1.20468C10.7719 2.46093 6.9 4.02187 3 4.02187C2.30156 4.02187 1.6875 4.48124 1.27031 5.31562C0.9375 5.98593 0.75 6.8578 0.75 7.77187C0.75 8.68593 0.932813 9.5578 1.27031 10.2281C1.6875 11.0625 2.30156 11.5219 3 11.5219C3.375 11.5219 3.74531 11.5359 4.11562 11.5641L4.96875 16.9828C5.025 17.3484 5.33906 17.6156 5.70937 17.6156H8.70937C8.92969 17.6156 9.13594 17.5219 9.28125 17.3531C9.42187 17.1844 9.4875 16.9641 9.45469 16.7484L8.78437 12.4687C10.6125 13.0125 12.3422 13.7109 13.8844 14.3344C14.5734 14.6109 15.225 14.8734 15.8437 15.1078C15.9281 15.1406 16.0219 15.1547 16.1062 15.1547C16.3359 15.1547 16.5609 15.0469 16.7016 14.8594C17.7844 13.4344 18.4594 10.7156 18.4594 7.76718C18.4594 4.81874 17.7844 2.09999 16.7016 0.674991C16.5 0.412491 16.1484 0.314053 15.8391 0.43124ZM2.61094 9.5578C2.38125 9.09843 2.25 8.44687 2.25 7.77187C2.25 7.09687 2.38125 6.4453 2.61094 5.98593C2.80312 5.60155 2.97656 5.52187 3 5.52187C3.29531 5.52187 3.59062 5.51249 3.88594 5.49843C3.79219 6.23905 3.74531 6.99843 3.74531 7.77187C3.74531 8.5453 3.79219 9.30468 3.88594 10.0453C3.59062 10.0312 3.29531 10.0219 3 10.0219C2.97656 10.0219 2.80312 9.94218 2.61094 9.5578ZM7.83281 16.1203H6.35156L5.66719 11.7469C6.18281 11.8312 6.68906 11.9297 7.19531 12.0516L7.83281 16.1203ZM15.8062 13.4953C15.3703 13.3266 14.9156 13.1391 14.4422 12.9516C11.8406 11.9016 8.72344 10.6453 5.41875 10.1953C5.30625 9.41249 5.24531 8.60155 5.24531 7.77655C5.24531 6.95155 5.30625 6.14062 5.41875 5.3578C8.72344 4.9078 11.8406 3.65155 14.4422 2.60155C14.9156 2.40937 15.3703 2.22655 15.8062 2.0578C16.5141 3.3328 16.9594 5.48905 16.9594 7.78124C16.9594 10.0734 16.5141 12.2203 15.8062 13.4953Z" fill="#212C5D"/>
<path d="M22.4951 7.02185H20.2451C19.8326 7.02185 19.4951 7.35935 19.4951 7.77185C19.4951 8.18435 19.8326 8.52185 20.2451 8.52185H22.4951C22.9076 8.52185 23.2451 8.18435 23.2451 7.77185C23.2451 7.35935 22.9123 7.02185 22.4951 7.02185Z" fill="#212C5D"/>
<path d="M22.0781 11.7047L19.9031 11.1234C19.5047 11.0156 19.0922 11.2547 18.9844 11.6531C18.8766 12.0515 19.1156 12.464 19.5141 12.5719L21.6891 13.1531C21.7547 13.1719 21.8203 13.1765 21.8859 13.1765C22.2188 13.1765 22.5188 12.9562 22.6078 12.6187C22.7156 12.225 22.4766 11.8125 22.0781 11.7047Z" fill="#212C5D"/>
<path d="M19.7111 4.44376C19.7768 4.44376 19.8424 4.43438 19.908 4.42032L22.083 3.83907C22.4815 3.73125 22.7205 3.31876 22.6127 2.92032C22.5049 2.52188 22.0924 2.28282 21.6939 2.39063L19.519 2.97188C19.1205 3.07969 18.8815 3.49219 18.9893 3.89063C19.0783 4.22344 19.3783 4.44376 19.7111 4.44376Z" fill="#212C5D"/>
</svg>
