<svg width="24" height="22" viewBox="0 0 24 22" fill="none" xmlns="http://www.w3.org/2000/svg">
    <path d="M9.28507 17.2443H3.80091C3.50101 17.2443 3.25792 17.4874 3.25792 17.7872C3.25792 18.0871 3.50101 18.3302 3.80091 18.3302H9.28507C9.58496 18.3302 9.82805 18.0871 9.82805 17.7872C9.82805 17.4874 9.58496 17.2443 9.28507 17.2443Z" fill="#212C5D" />
    <path d="M17.4842 17.2443H12C11.7001 17.2443 11.457 17.4874 11.457 17.7872C11.457 18.0871 11.7001 18.3302 12 18.3302H17.4842C17.784 18.3302 18.0272 18.0871 18.0272 17.7872C18.0272 17.4874 17.784 17.2443 17.4842 17.2443Z" fill="#212C5D" />
    <path d="M17.4842 3.66968H3.80091C3.50101 3.66968 3.25792 3.91277 3.25792 4.21266C3.25792 4.51256 3.50101 4.75565 3.80091 4.75565H17.4842C17.784 4.75565 18.0272 4.51256 18.0272 4.21266C18.0272 3.91277 17.784 3.66968 17.4842 3.66968Z" fill="#212C5D" />
    <path d="M17.4842 6.38464H12C11.7001 6.38464 11.457 6.62774 11.457 6.92763C11.457 7.22752 11.7001 7.47062 12 7.47062H17.4842C17.784 7.47062 18.0272 7.22752 18.0272 6.92763C18.0272 6.62774 17.784 6.38464 17.4842 6.38464Z" fill="#212C5D" />
    <path d="M17.4842 9.09949H12C11.7001 9.09949 11.457 9.34258 11.457 9.64247C11.457 9.94237 11.7001 10.1855 12 10.1855H17.4842C17.784 10.1855 18.0272 9.94237 18.0272 9.64247C18.0272 9.34258 17.784 9.09949 17.4842 9.09949Z" fill="#212C5D" />
    <path d="M17.4842 11.8145H12C11.7001 11.8145 11.457 12.0575 11.457 12.3574C11.457 12.6573 11.7001 12.9004 12 12.9004H17.4842C17.784 12.9004 18.0272 12.6573 18.0272 12.3574C18.0272 12.0575 17.784 11.8145 17.4842 11.8145Z" fill="#212C5D" />
    <path d="M17.4842 14.5294H12C11.7001 14.5294 11.457 14.7725 11.457 15.0724C11.457 15.3723 11.7001 15.6154 12 15.6154H17.4842C17.784 15.6154 18.0272 15.3723 18.0272 15.0724C18.0272 14.7725 17.784 14.5294 17.4842 14.5294Z" fill="#212C5D" />
    <path d="M9.28507 14.5294H3.80091C3.50101 14.5294 3.25792 14.7725 3.25792 15.0724C3.25792 15.3723 3.50101 15.6154 3.80091 15.6154H9.28507C9.58496 15.6154 9.82805 15.3723 9.82805 15.0724C9.82805 14.7725 9.58496 14.5294 9.28507 14.5294Z" fill="#212C5D" />
    <path d="M9.28507 6.38464H3.80091C3.50101 6.38464 3.25792 6.62774 3.25792 6.92763V12.4118C3.25792 12.7117 3.50101 12.9548 3.80091 12.9548H9.28507C9.58496 12.9548 9.82805 12.7117 9.82805 12.4118V6.92763C9.82805 6.62774 9.58496 6.38464 9.28507 6.38464ZM8.74208 11.8688H4.34389V7.47062H8.74208V11.8688Z" fill="#212C5D" />
    <path d="M22.914 3.12668H21.2851V1.49772C21.2851 0.898911 20.7979 0.411743 20.1991 0.411743H1.08597C0.487167 0.411743 0 0.898911 0 1.49772V18.8733C0 20.3703 1.21792 21.5882 2.71493 21.5882H21.2851C22.7821 21.5882 24 20.3703 24 18.8733V4.21265C24 3.61384 23.5128 3.12668 22.914 3.12668ZM22.914 18.8733C22.914 19.7715 22.1833 20.5022 21.2851 20.5022H2.71493C1.81672 20.5022 1.08597 19.7715 1.08597 18.8733V1.49772H20.1991V18.0588C20.1991 18.8073 20.8081 19.4163 21.5566 19.4163C21.8564 19.4163 22.0995 19.1732 22.0995 18.8733C22.0995 18.5734 21.8564 18.3303 21.5566 18.3303C21.4069 18.3303 21.2851 18.2085 21.2851 18.0588V4.21265H22.914V18.8733Z" fill="#212C5D" />
</svg>
