<svg width="22" height="22" viewBox="0 0 22 22" fill="none" xmlns="http://www.w3.org/2000/svg">
<path d="M16.7657 21.2683C16.481 21.2684 16.2006 21.1989 15.949 21.0658L11.2742 18.6088C11.238 18.5894 11.1975 18.5793 11.1565 18.5793C11.1154 18.5793 11.0749 18.5894 11.0387 18.6088L6.36471 21.0658C6.07506 21.2182 5.74854 21.2865 5.42209 21.263C5.09564 21.2394 4.78228 21.125 4.51749 20.9326C4.25269 20.7403 4.04702 20.4776 3.92375 20.1744C3.80047 19.8712 3.76452 19.5396 3.81996 19.217L4.71246 14.0128C4.71931 13.972 4.71606 13.9301 4.70299 13.8909C4.68991 13.8517 4.66741 13.8163 4.63746 13.7878L0.858957 10.1C0.624359 9.87145 0.458464 9.58175 0.38007 9.26374C0.301675 8.94573 0.313916 8.61212 0.415403 8.3007C0.516891 7.98929 0.703569 7.71253 0.954286 7.50178C1.205 7.29102 1.50974 7.1547 1.83396 7.10826L7.05621 6.35001C7.09684 6.34409 7.13543 6.32837 7.16862 6.30419C7.20181 6.28002 7.22861 6.24812 7.24671 6.21126L9.58146 1.47501C9.72607 1.1814 9.95 0.934143 10.2279 0.761243C10.5058 0.588343 10.8265 0.496704 11.1538 0.496704C11.4811 0.496704 11.8019 0.588343 12.0798 0.761243C12.3577 0.934143 12.5816 1.1814 12.7262 1.47501L15.0625 6.20976C15.0807 6.2465 15.1076 6.2783 15.1407 6.30246C15.1739 6.32661 15.2124 6.34241 15.253 6.34851L20.4797 7.10751C20.8038 7.15421 21.1083 7.29068 21.3588 7.50147C21.6094 7.71226 21.7959 7.98895 21.8974 8.30025C21.9988 8.61155 22.0111 8.94502 21.9329 9.26295C21.8547 9.58088 21.689 9.87057 21.4547 10.0993L17.6725 13.7848C17.6426 13.8133 17.6202 13.8488 17.6071 13.888C17.594 13.9272 17.5907 13.969 17.5975 14.0098L18.49 19.214C18.5329 19.4655 18.5205 19.7233 18.4537 19.9694C18.3869 20.2156 18.2672 20.4443 18.103 20.6395C17.9388 20.8348 17.7341 20.9919 17.503 21.1C17.2719 21.208 17.0201 21.2644 16.765 21.2653L16.7657 21.2683ZM11.1565 17.0788C11.4409 17.0787 11.721 17.1482 11.9725 17.2813L16.6465 19.7375C16.6878 19.7612 16.7353 19.772 16.7828 19.7687C16.8303 19.7653 16.8758 19.748 16.9135 19.7188C16.9528 19.6918 16.9833 19.6539 17.0013 19.6098C17.0193 19.5657 17.0239 19.5173 17.0147 19.4705L16.1215 14.2655C16.0737 13.9854 16.0947 13.6979 16.1824 13.4276C16.2702 13.1573 16.4222 12.9124 16.6255 12.7138L20.4077 9.02751C20.4415 8.99444 20.4653 8.95259 20.4766 8.90669C20.4878 8.86079 20.486 8.81266 20.4713 8.76773C20.4567 8.7228 20.4297 8.68287 20.3936 8.65244C20.3574 8.622 20.3135 8.60229 20.2667 8.59551L15.0407 7.83576C14.7593 7.79502 14.4921 7.68639 14.2622 7.51926C14.0322 7.35214 13.8463 7.13153 13.7207 6.87651L11.3815 2.14101C11.3605 2.09863 11.3281 2.06295 11.288 2.03801C11.2478 2.01306 11.2015 1.99984 11.1542 1.99984C11.1069 1.99984 11.0606 2.01306 11.0204 2.03801C10.9803 2.06295 10.9479 2.09863 10.927 2.14101L8.59221 6.87501C8.4665 7.13013 8.28055 7.35079 8.05043 7.51792C7.82031 7.68506 7.55295 7.79363 7.27146 7.83426L2.04621 8.59551C1.99934 8.60214 1.95528 8.62179 1.91903 8.65224C1.88279 8.68269 1.85582 8.7227 1.84121 8.76772C1.82659 8.81274 1.82491 8.86096 1.83636 8.90689C1.84781 8.95282 1.87192 8.99461 1.90596 9.02751L5.68746 12.7138C5.89067 12.9124 6.04268 13.1573 6.13047 13.4276C6.21825 13.6979 6.23917 13.9854 6.19146 14.2655L5.29821 19.4705C5.2901 19.5173 5.29529 19.5654 5.31318 19.6093C5.33106 19.6533 5.36093 19.6913 5.39938 19.7192C5.43783 19.747 5.48332 19.7635 5.53067 19.7667C5.57802 19.7699 5.62532 19.7598 5.66721 19.7375L10.3405 17.2805C10.592 17.148 10.8721 17.0788 11.1565 17.0788V17.0788Z" fill="#212C5D"/>
</svg>
