<svg width="23" height="21" viewBox="0 0 23 21" fill="none" xmlns="http://www.w3.org/2000/svg">
<path d="M9.5875 5.6625C9.14875 6.10125 9.14875 6.79875 9.5875 7.2375L11.725 9.375H1.375C0.75625 9.375 0.25 9.88125 0.25 10.5C0.25 11.1187 0.75625 11.625 1.375 11.625H11.725L9.5875 13.7625C9.14875 14.2012 9.14875 14.8987 9.5875 15.3375C10.0262 15.7762 10.7238 15.7762 11.1625 15.3375L15.2013 11.2987C15.64 10.86 15.64 10.1512 15.2013 9.7125L11.1625 5.6625C10.7238 5.22375 10.0262 5.22375 9.5875 5.6625ZM20.5 18.375H12.625C12.0063 18.375 11.5 18.8812 11.5 19.5C11.5 20.1187 12.0063 20.625 12.625 20.625H20.5C21.7375 20.625 22.75 19.6125 22.75 18.375V2.625C22.75 1.3875 21.7375 0.375 20.5 0.375H12.625C12.0063 0.375 11.5 0.88125 11.5 1.5C11.5 2.11875 12.0063 2.625 12.625 2.625H20.5V18.375Z" fill="#019CCE"/>
</svg>
