<svg width="23" height="21" viewBox="0 0 23 21" fill="none" xmlns="http://www.w3.org/2000/svg">
<path d="M9.5875 5.66262C9.14875 6.10137 9.14875 6.79887 9.5875 7.23762L11.725 9.37512H1.375C0.75625 9.37512 0.25 9.88137 0.25 10.5001C0.25 11.1189 0.75625 11.6251 1.375 11.6251H11.725L9.5875 13.7626C9.14875 14.2014 9.14875 14.8989 9.5875 15.3376C10.0262 15.7764 10.7238 15.7764 11.1625 15.3376L15.2013 11.2989C15.64 10.8601 15.64 10.1514 15.2013 9.71262L11.1625 5.66262C10.7238 5.22387 10.0262 5.22387 9.5875 5.66262ZM20.5 18.3751H12.625C12.0063 18.3751 11.5 18.8814 11.5 19.5001C11.5 20.1189 12.0063 20.6251 12.625 20.6251H20.5C21.7375 20.6251 22.75 19.6126 22.75 18.3751V2.62512C22.75 1.38762 21.7375 0.375122 20.5 0.375122H12.625C12.0063 0.375122 11.5 0.881372 11.5 1.50012C11.5 2.11887 12.0063 2.62512 12.625 2.62512H20.5V18.3751Z" fill="#EC644D"/>
</svg>
