<svg width="30" height="34" viewBox="0 0 30 34" fill="none" xmlns="http://www.w3.org/2000/svg">
<path d="M26.6667 3.66671H19.7C19 1.73337 17.1667 0.333374 15 0.333374C12.8333 0.333374 11 1.73337 10.3 3.66671H3.33333C1.5 3.66671 0 5.16671 0 7.00004V30.3334C0 32.1667 1.5 33.6667 3.33333 33.6667H26.6667C28.5 33.6667 30 32.1667 30 30.3334V7.00004C30 5.16671 28.5 3.66671 26.6667 3.66671ZM15 3.25004C15.3667 3.25004 15.6833 3.41671 15.9167 3.66671C16.1167 3.88337 16.25 4.18337 16.25 4.50004C16.25 5.18337 15.6833 5.75004 15 5.75004C14.3167 5.75004 13.75 5.18337 13.75 4.50004C13.75 4.18337 13.8833 3.88337 14.0833 3.66671C14.3167 3.41671 14.6333 3.25004 15 3.25004ZM26.6667 30.3334H3.33333V7.00004H26.6667V30.3334ZM15 8.66671C12.25 8.66671 10 10.9167 10 13.6667C10 16.4167 12.25 18.6667 15 18.6667C17.75 18.6667 20 16.4167 20 13.6667C20 10.9167 17.75 8.66671 15 8.66671ZM15 15.3334C14.0833 15.3334 13.3333 14.5834 13.3333 13.6667C13.3333 12.75 14.0833 12 15 12C15.9167 12 16.6667 12.75 16.6667 13.6667C16.6667 14.5834 15.9167 15.3334 15 15.3334ZM5 26.1167V28.6667H25V26.1167C25 21.95 18.3833 20.15 15 20.15C11.6167 20.15 5 21.9334 5 26.1167ZM8.85 25.3334C10 24.4 12.8167 23.4667 15 23.4667C17.1833 23.4667 20.0167 24.4 21.15 25.3334H8.85Z" fill="#EC644D"/>
</svg>
