<svg width="40" height="20" viewBox="0 0 40 20" fill="none" xmlns="http://www.w3.org/2000/svg">
<path d="M6.66667 11.6667C8.5 11.6667 10 10.1667 10 8.33333C10 6.5 8.5 5 6.66667 5C4.83333 5 3.33333 6.5 3.33333 8.33333C3.33333 10.1667 4.83333 11.6667 6.66667 11.6667ZM8.55 13.5C7.93333 13.4 7.31667 13.3333 6.66667 13.3333C5.01667 13.3333 3.45 13.6833 2.03333 14.3C0.8 14.8333 0 16.0333 0 17.3833V20H7.5V17.3167C7.5 15.9333 7.88333 14.6333 8.55 13.5ZM33.3333 11.6667C35.1667 11.6667 36.6667 10.1667 36.6667 8.33333C36.6667 6.5 35.1667 5 33.3333 5C31.5 5 30 6.5 30 8.33333C30 10.1667 31.5 11.6667 33.3333 11.6667ZM40 17.3833C40 16.0333 39.2 14.8333 37.9667 14.3C36.55 13.6833 34.9833 13.3333 33.3333 13.3333C32.6833 13.3333 32.0667 13.4 31.45 13.5C32.1167 14.6333 32.5 15.9333 32.5 17.3167V20H40V17.3833ZM27.0667 12.75C25.1167 11.8833 22.7167 11.25 20 11.25C17.2833 11.25 14.8833 11.9 12.9333 12.75C11.1333 13.55 10 15.35 10 17.3167V20H30V17.3167C30 15.35 28.8667 13.55 27.0667 12.75ZM13.45 16.6667C13.6 16.2833 13.6667 16.0167 14.9667 15.5167C16.5833 14.8833 18.2833 14.5833 20 14.5833C21.7167 14.5833 23.4167 14.8833 25.0333 15.5167C26.3167 16.0167 26.3833 16.2833 26.55 16.6667H13.45ZM20 3.33333C20.9167 3.33333 21.6667 4.08333 21.6667 5C21.6667 5.91667 20.9167 6.66667 20 6.66667C19.0833 6.66667 18.3333 5.91667 18.3333 5C18.3333 4.08333 19.0833 3.33333 20 3.33333ZM20 0C17.2333 0 15 2.23333 15 5C15 7.76667 17.2333 10 20 10C22.7667 10 25 7.76667 25 5C25 2.23333 22.7667 0 20 0Z" fill="#EC644D"/>
</svg>
