<svg width="24" height="24" viewBox="0 0 24 24" fill="none" xmlns="http://www.w3.org/2000/svg">
<path d="M23.9376 9.20622C23.7805 8.72024 23.3494 8.37508 22.8395 8.32912L15.9124 7.70014L13.1732 1.2889C12.9713 0.819039 12.5113 0.514893 12.0002 0.514893C11.4892 0.514893 11.0292 0.819039 10.8272 1.29L8.0881 7.70014L1.15994 8.32912C0.650892 8.37618 0.22095 8.72024 0.0629258 9.20622C-0.0950983 9.69219 0.0508405 10.2252 0.435921 10.5612L5.67196 15.1533L4.12797 21.9545C4.01499 22.4546 4.20909 22.9715 4.62402 23.2715C4.84704 23.4326 5.10798 23.5146 5.37111 23.5146C5.59798 23.5146 5.82302 23.4535 6.02499 23.3326L12.0002 19.7614L17.9733 23.3326C18.4104 23.5956 18.9614 23.5716 19.3754 23.2715C19.7905 22.9706 19.9844 22.4535 19.8714 21.9545L18.3274 15.1533L23.5635 10.5621C23.9485 10.2252 24.0956 9.69311 23.9376 9.20622Z" fill="#FFC107"/>
</svg>
