<svg width="24" height="24" viewBox="0 0 24 24" fill="none" xmlns="http://www.w3.org/2000/svg">
<path d="M23.4617 9.36008L23.4619 9.36063C23.5581 9.65712 23.4689 9.98056 23.2342 10.1859L23.2338 10.1863L17.9977 14.7774L17.7739 14.9737L17.8398 15.264L19.3837 22.065C19.4526 22.3694 19.3346 22.6835 19.0819 22.8667L19.0819 22.8667C18.8297 23.0495 18.4957 23.0635 18.231 22.9042L18.2298 22.9035L12.2568 19.3323L12.0002 19.179L11.7437 19.3323L5.76842 22.9035L5.7682 22.9036C5.64363 22.9782 5.50729 23.0147 5.37105 23.0147C5.21252 23.0147 5.05415 22.9655 4.91677 22.8662C4.66516 22.6843 4.54659 22.3708 4.61556 22.065C4.61558 22.0649 4.6156 22.0649 4.61562 22.0648L6.15949 15.264L6.22539 14.9737L6.00157 14.7774L0.765541 10.1854L0.764592 10.1845C0.531223 9.98092 0.441978 9.65729 0.538358 9.36089C0.634646 9.06478 0.895677 8.85593 1.20543 8.8271C1.20559 8.82709 1.20575 8.82707 1.2059 8.82706L8.13324 8.19815L8.43052 8.17116L8.54782 7.89667L11.2867 1.48713C11.2868 1.48696 11.2868 1.48679 11.2869 1.48663C11.4106 1.19888 11.6902 1.01495 12.0002 1.01495C12.3103 1.01495 12.59 1.19904 12.7136 1.48579C12.7137 1.486 12.7137 1.48621 12.7138 1.48642L15.4525 7.89664L15.5698 8.17115L15.8671 8.19815L22.7942 8.82713L22.7945 8.82716C23.1046 8.85511 23.3662 9.06459 23.4617 9.36008Z" stroke="#FFC107"/>
</svg>
