<svg width="25" height="24" viewBox="0 0 25 24" fill="none" xmlns="http://www.w3.org/2000/svg">
<path d="M19.5749 9.4682C19.5749 9.4682 19.0319 16.2032 18.7169 19.0402C18.5669 20.3952 17.7299 21.1892 16.3589 21.2142C13.7499 21.2612 11.1379 21.2642 8.5299 21.2092C7.2109 21.1822 6.3879 20.3782 6.2409 19.0472C5.9239 16.1852 5.3839 9.4682 5.3839 9.4682" stroke="#FA0532" stroke-width="1.5" stroke-linecap="round" stroke-linejoin="round"/>
<path d="M20.9582 6.2397H4.0002" stroke="#FA0532" stroke-width="1.5" stroke-linecap="round" stroke-linejoin="round"/>
<path d="M17.6906 6.2397C16.9056 6.2397 16.2296 5.6847 16.0756 4.9157L15.8326 3.6997C15.6826 3.1387 15.1746 2.7507 14.5956 2.7507H10.3626C9.78359 2.7507 9.27559 3.1387 9.12559 3.6997L8.88259 4.9157C8.72859 5.6847 8.05259 6.2397 7.26759 6.2397" stroke="#FA0532" stroke-width="1.5" stroke-linecap="round" stroke-linejoin="round"/>
</svg>
