<svg width="24" height="24" viewBox="0 0 24 24" fill="none" xmlns="http://www.w3.org/2000/svg">
<path d="M12 0.333252C5.56004 0.333252 0.333374 5.55992 0.333374 11.9999C0.333374 18.4399 5.56004 23.6666 12 23.6666C18.44 23.6666 23.6667 18.4399 23.6667 11.9999C23.6667 5.55992 18.44 0.333252 12 0.333252ZM12 3.83325C13.9367 3.83325 15.5 5.39659 15.5 7.33325C15.5 9.26992 13.9367 10.8333 12 10.8333C10.0634 10.8333 8.50004 9.26992 8.50004 7.33325C8.50004 5.39659 10.0634 3.83325 12 3.83325ZM12 20.3999C9.08337 20.3999 6.50504 18.9066 5.00004 16.6433C5.03504 14.3216 9.66671 13.0499 12 13.0499C14.3217 13.0499 18.965 14.3216 19 16.6433C17.495 18.9066 14.9167 20.3999 12 20.3999Z" fill="white"/>
</svg>
