<svg width="40" height="40" viewBox="0 0 40 40" fill="none" xmlns="http://www.w3.org/2000/svg">
<path d="M19.9998 10.0001C21.8332 10.0001 23.3332 11.5001 23.3332 13.3334C23.3332 15.1667 21.8332 16.6667 19.9998 16.6667C18.1665 16.6667 16.6665 15.1667 16.6665 13.3334C16.6665 11.5001 18.1665 10.0001 19.9998 10.0001ZM19.9998 26.6667C24.4998 26.6667 29.6665 28.8167 29.9998 30.0001H9.99984C10.3832 28.8001 15.5165 26.6667 19.9998 26.6667ZM19.9998 6.66675C16.3165 6.66675 13.3332 9.65008 13.3332 13.3334C13.3332 17.0167 16.3165 20.0001 19.9998 20.0001C23.6832 20.0001 26.6665 17.0167 26.6665 13.3334C26.6665 9.65008 23.6832 6.66675 19.9998 6.66675ZM19.9998 23.3334C15.5498 23.3334 6.6665 25.5667 6.6665 30.0001V33.3334H33.3332V30.0001C33.3332 25.5667 24.4498 23.3334 19.9998 23.3334Z" fill="#EC644D"/>
</svg>
