<svg width="24" height="24" viewBox="0 0 24 24" fill="none" xmlns="http://www.w3.org/2000/svg">
<path d="M11.9884 0.333252C5.54837 0.333252 0.333374 5.55992 0.333374 11.9999C0.333374 18.4399 5.54837 23.6666 11.9884 23.6666C18.44 23.6666 23.6667 18.4399 23.6667 11.9999C23.6667 5.55992 18.44 0.333252 11.9884 0.333252ZM12 21.3333C6.84337 21.3333 2.66671 17.1566 2.66671 11.9999C2.66671 6.84325 6.84337 2.66659 12 2.66659C17.1567 2.66659 21.3334 6.84325 21.3334 11.9999C21.3334 17.1566 17.1567 21.3333 12 21.3333ZM12.5834 6.16659H10.8334V13.1666L16.9584 16.8416L17.8334 15.4066L12.5834 12.2916V6.16659Z" fill="#4E4E4E"/>
</svg>
